# xmcd
#
# Track frame offsets:
#	150
#	16600
#	31865
#	45952
#	66703
#
# Disc length: 1127 seconds
#
# Revision: 1
# Processed by: cddbd v1.5.2PL0 Copyright (c) Steve Scherf et al.
# Submitted via: audiograbber 1.83.01
#
DISCID=33046505
DTITLE=Rascal Flatts - Still Feels Good (Bonus Disc)
DYEAR=2007
DGENRE=Country
TTITLE0=I Was Born To
TTITLE1=The Way
TTITLE2=Lonesome Road
TTITLE3=I Can Almost
TTITLE4=My Wish (The Hot Mix)
EXTD=
EXTT0=
EXTT1=
EXTT2=
EXTT3=
EXTT4=
PLAYORDER=
